HIERARCHY
ROOT HipCenter
{
    OFFSET 0.0 0.0 -0.0
    CHANNELS 6 Xposition Yposition Zposition Zrotation Xrotation Yrotation
    JOINT Spine
    {
        OFFSET 0.0 0.12091275304555893 0.0
        CHANNELS 3 Zrotation Xrotation Yrotation
        JOINT ShoulderCenter
        {
            OFFSET 0.0 0.3346816301345825 0.0
            CHANNELS 3 Zrotation Xrotation Yrotation
            JOINT LeftShoulder
            {
                OFFSET 0.19071903824806213 0.0 0.0
                CHANNELS 3 Zrotation Xrotation Yrotation
                JOINT LeftElbow
                {
                    OFFSET 0.29756611585617065 0.0 0.0
                    CHANNELS 3 Zrotation Xrotation Yrotation
                    JOINT LeftWrist
                    {
                        OFFSET 0.2960432767868042 0.0 0.0
                        CHANNELS 3 Zrotation Xrotation Yrotation
                        JOINT LeftHand
                        {
                            OFFSET 0.04401778429746628 0.0 0.0
                            CHANNELS 3 Zrotation Xrotation Yrotation
                            End Site
                            {
                                OFFSET 0.01760711520910263 0.0 0.0
                            }
                        }
                    }
                }
            }
            JOINT RightShoulder
            {
                OFFSET -0.19071903824806213 0.0 0.0
                CHANNELS 3 Zrotation Xrotation Yrotation
                JOINT RightElbow
                {
                    OFFSET -0.29756611585617065 0.0 0.0
                    CHANNELS 3 Zrotation Xrotation Yrotation
                    JOINT RightWrist
                    {
                        OFFSET -0.2960432767868042 0.0 0.0
                        CHANNELS 3 Zrotation Xrotation Yrotation
                        JOINT RightHand
                        {
                            OFFSET -0.04401778429746628 0.0 0.0
                            CHANNELS 3 Zrotation Xrotation Yrotation
                            End Site
                            {
                                OFFSET -0.01760711520910263 0.0 0.0
                            }
                        }
                    }
                }
            }
            End Site
            {
                OFFSET 0.0 0.1338726431131363 0.0
            }
        }
    }
    JOINT LeftHip
    {
        OFFSET 0.13977819681167603 0.0 0.0
        CHANNELS 3 Zrotation Xrotation Yrotation
        JOINT LeftKnee
        {
            OFFSET 0.0 -0.4064934253692627 0.0
            CHANNELS 3 Zrotation Xrotation Yrotation
            JOINT LeftAnkle
            {
                OFFSET 0.0 -0.4477119445800781 0.0
                CHANNELS 3 Zrotation Xrotation Yrotation
                JOINT LeftFoot
                {
                    OFFSET 0.0 -0.10066655278205872 0.0
                    CHANNELS 3 Zrotation Xrotation Yrotation
                    End Site
                    {
                        OFFSET 0.0 0.0 0.040266621857881546
                    }
                }
            }
        }
    }
    JOINT RightHip
    {
        OFFSET -0.13977819681167603 0.0 0.0
        CHANNELS 3 Zrotation Xrotation Yrotation
        JOINT RightKnee
        {
            OFFSET 0.0 -0.4064934253692627 0.0
            CHANNELS 3 Zrotation Xrotation Yrotation
            JOINT RightAnkle
            {
                OFFSET 0.0 -0.4477119445800781 0.0
                CHANNELS 3 Zrotation Xrotation Yrotation
                JOINT RightFoot
                {
                    OFFSET 0.0 -0.10066655278205872 0.0
                    CHANNELS 3 Zrotation Xrotation Yrotation
                    End Site
                    {
                        OFFSET 0.0 0.0 0.040266621857881546
                    }
                }
            }
        }
    }
}
MOTION
Frames: 4
Frame Time: 0.03333333333333333
0.43799999356269836 0.09600000083446503 -0.023000000044703484 14.962150373673467 7.590217294019729 -52.598315514085996 -1.2555046733597623 -2.547689297556556 0.1824761576993764 5.193358398709475e-07 -1.8036138986728335e-07 15.029148477291827 130.7979623383177 -26.147706239529253 143.55265327719877 -2.167098781719263e-06 -3.947148467701111e-06 13.204383459795329 3.6769304091621263e-06 47.921433827859886 19.447448005074158 -3.1805546814635176e-15 -8.827812596100317e-32 3.1805546814635176e-15 -160.54452341447012 -1.9790887373766868 117.55458105599992 9.409629298018792e-07 3.1932973850798385e-06 -88.6626010754132 -179.99999780983183 -23.506555282817413 137.27946385166538 3.975693351829397e-16 -1.5902773407317584e-15 6.013236194641961e-15 15.565619282266077 -41.95188472295148 34.72484689537871 20.654279534473332 38.84549582119614 -95.13674949473436 64.39461452036176 -19.142931347737875 145.4145720295489 3.1805546814635168e-15 -4.4139062980501586e-32 -1.5902773407317584e-15 -6.914474273759351 -6.52584068349106 40.33211767158562 1.9601076732299594 2.947202082070548 3.107753544311901 -88.61209914767318 -28.70491390797278 -154.416581743349 5.168401357378215e-15 7.951386703658794e-16 3.975693351829396e-15
0.4390000104904175 0.12700000405311584 -0.008999999612569809 17.67105911685705 9.101888734453293 -53.6542659592007 -2.4381882878623222 -2.7095316060133396 0.24882925838852596 5.418238454992851e-07 -1.4710209104209995e-07 17.628662253509958 129.72052919731473 -32.236578532394645 130.0722718920443 -2.3367213001161605e-07 4.686003853145837e-06 16.251907467375798 -1.3336153079235926e-06 23.8034038135651 19.271727676627727 -1.5902773407317582e-15 -6.361109362927033e-15 -8.827812596100317e-32 -174.65468183800414 14.967609606849482 112.54728062479344 -6.835305444248044e-07 -9.891253046222553e-07 -86.21440432682671 -179.99999956436352 -15.65553676358395 139.67029757101452 -1.5902773407317584e-15 -7.951386703658794e-16 1.2523434058262597e-14 13.461269502112112 -48.62648967060791 46.71507636676738 30.09104852337365 36.61300557468627 -104.57364663160206 68.96965041933449 -24.02143989857257 146.3581835251274 -2.648343778830095e-31 6.361109362927033e-15 4.770832022195274e-15 -9.25342606621531 -7.251031494948458 40.69344485539091 1.0882890410420742 1.5780849440004643 1.6971999159416795 -76.44073836655161 -28.918518858250838 -143.86122117625771 7.951386703658792e-15 3.3104297235376187e-31 4.770832022195275e-15
0.43799999356269836 0.1120000034570694 0.007000000216066837 17.20955779631305 11.932958657468587 -52.59615847136376 1.0612175123797705 -1.8157677101547753 0.22515523948325683 9.681000030323543e-07 1.0471278430448e-06 16.852974781227765 129.89436495957406 -27.862312429321488 122.93970742234649 2.967801140045374e-06 -1.0780332552836136e-05 16.589730738576307 1.7758705087089259e-06 21.94192044509082 16.16707793446125 -7.951386703658791e-16 -6.3611093629270335e-15 1.5902773407317584e-15 172.93219175535262 22.348496528831376 107.725136170188 -3.0009901625229334e-07 1.953753652040274e-07 -77.55056479036453 179.999999991703 -18.318798311466246 137.0869717031475 -2.8621423651419e-32 -1.5902773407317584e-15 -2.0623909262614992e-15 13.204884860004109 -52.7805012583547 47.97061767475799 32.65155437191029 37.88657176107328 -103.89624874496849 69.42732552972757 -29.158168269169153 140.64301882393664 0.0 0.0 -1.5902773407317588e-15 -10.087491415803726 -10.94019077951851 39.75716455000083 10.617122171349068 10.063988596702503 8.547086430401738 -64.70510788890901 -26.194118279025574 -120.63148372096202 -6.3611093629270335e-15 -3.1805546814635164e-15 -3.975693351829396e-15
0.43700000643730164 0.05900000035762787 0.027000000700354576 17.20955517432457 12.395788684540358 -53.00921069072736 2.396100787076256 -0.4983114138336246 0.099258190552058 5.150774592749014e-07 1.2792211311634904e-07 17.652321906602968 125.18666688435185 -21.869479041417886 118.62603645009419 1.7885861133917007e-06 -2.822068121343488e-06 19.114892011164525 -1.6001467699328444e-06 3.995449917723309 15.435701397482571 -1.1927080055488192e-15 -1.6552148617688095e-32 1.5902773407317588e-15 -171.70266576358443 14.217875657151463 95.19144777453015 7.402103316642221e-07 1.9357219291014726e-06 -79.6145868041233 -179.99999842448764 -31.669037726722284 129.39959403795348 0.0 0.0 1.5902773407317582e-15 14.004114504295412 -55.610418569216584 58.45285913190495 42.04409238521129 37.413996072778545 -116.88465877092277 74.03607575595028 -29.792080269302257 143.02050620160773 -8.827812596100317e-32 -6.3611093629270335e-15 -1.5902773407317584e-15 -13.668932723004499 -11.939708673103699 38.91092308459207 19.55496745215351 12.9330933121041 8.184677498123039 -76.38479921892146 -18.626255832740654 -135.79895197248797 -3.1805546814635164e-15 -3.1805546814635168e-15 9.54166404439055e-15
